<mxfile host="app.diagrams.net" modified="2021-08-24T02:40:45.953Z" agent="5.0 (Windows NT 10.0; Win64; x64) AppleWebKit/537.36 (KHTML, like Gecko) Chrome/90.0.4430.85 Safari/537.36" etag="HGLLPdVCAFWVR-0luyAP" version="14.9.8" type="github">
  <diagram id="Cc7z1F91mgXTT8sGgIEH" name="Page-1">
    <mxGraphModel dx="1422" dy="761" grid="1" gridSize="10" guides="1" tooltips="1" connect="1" arrows="1" fold="1" page="1" pageScale="1" pageWidth="827" pageHeight="1169" math="0" shadow="0">
      <root>
        <mxCell id="0" />
        <mxCell id="1" parent="0" />
        <mxCell id="WIfMAcYMD8yofdOhz-Bh-5" style="edgeStyle=orthogonalEdgeStyle;rounded=0;orthogonalLoop=1;jettySize=auto;html=1;" edge="1" parent="1" source="WIfMAcYMD8yofdOhz-Bh-1" target="WIfMAcYMD8yofdOhz-Bh-3">
          <mxGeometry relative="1" as="geometry" />
        </mxCell>
        <mxCell id="WIfMAcYMD8yofdOhz-Bh-6" style="edgeStyle=orthogonalEdgeStyle;rounded=0;orthogonalLoop=1;jettySize=auto;html=1;entryX=0;entryY=0.5;entryDx=0;entryDy=0;" edge="1" parent="1" source="WIfMAcYMD8yofdOhz-Bh-1" target="WIfMAcYMD8yofdOhz-Bh-4">
          <mxGeometry relative="1" as="geometry" />
        </mxCell>
        <mxCell id="WIfMAcYMD8yofdOhz-Bh-1" value="数据部人员" style="shape=umlActor;verticalLabelPosition=bottom;verticalAlign=top;html=1;" vertex="1" parent="1">
          <mxGeometry x="120" y="180" width="40" height="80" as="geometry" />
        </mxCell>
        <mxCell id="WIfMAcYMD8yofdOhz-Bh-3" value="检查工作量" style="ellipse;whiteSpace=wrap;html=1;" vertex="1" parent="1">
          <mxGeometry x="230" y="140" width="140" height="70" as="geometry" />
        </mxCell>
        <mxCell id="WIfMAcYMD8yofdOhz-Bh-4" value="查询错误数据" style="ellipse;whiteSpace=wrap;html=1;" vertex="1" parent="1">
          <mxGeometry x="230" y="230" width="140" height="70" as="geometry" />
        </mxCell>
      </root>
    </mxGraphModel>
  </diagram>
</mxfile>
